<?xml version="1.0" encoding="utf-8"?>
<?xml-stylesheet type="text/xsl" href="rss1.xsl"?>
<rss version="2.0" xmlns:atom="http://www.w3.org/2005/Atom" xmlns:content="http://purl.org/rss/1.0/modules/content/" xmlns:dc="http://purl.org/dc/elements/1.1/" xmlns:media="http://search.yahoo.com/mrss/">
<channel>
 <title>Getty</title>
 <link>http://www.gettyimg.com/</link>
 <atom:link href="http://www.gettyimg.com/" rel="self" type="application/rss+xml" />

 
                <item>
                <title><![CDATA[【MASTER &amp; MASTER RIP】Olivia Rodrigo - vampire (Master ProRes-Rip AVC 1080p) (USUMV2302215)]]></title>
                <link><![CDATA[https://sharemania.us/threads/olivia-rodrigo-vampire-master-prores-rip-avc-1080p-usumv2302215.228776/]]></link>
                <description><![CDATA[<article>
<blockquote class="messageText SelectQuoteContainer ugc baseHtml">
<div style="text-align: center"><img src="https://i.imgur.com/HzgHkDm.jpg" class="bbCodeImage LbImage" alt="[​IMG]" data-url="https://i.imgur.com/HzgHkDm.jpg" style=""> <br>
<br>
Encoded from: <b>Olivia Rodrigo - vampire (Master ProRes 1080p) (USUMV2302215).mov</b><br>
Encoded by: <b>stargamer</b> (please give credits if you share/use this MasterRip anywhere.)<br>
<br>
Metadata:<br>
<div class="ToggleTriggerAnchor bbCodeSpoilerContainer">
<button type="button" class="button bbCodeSpoilerButton ToggleTrigger Tooltip JsOnly" data-target="> .SpoilerTarget"><span>Spoiler</span></button>
<div class="SpoilerTarget bbCodeSpoilerText">General<br>
Format : MPEG-4<br>
Format profile : Base Media / Version 2<br>
Codec ID : mp42 (mp42/mp41)<br>
File size : 932 MiB<br>
Duration : 4 min 4 s<br>
Overall bit rate mode : Variable<br>
Overall bit rate : 32.0 Mb/s<br>
Encoded date : UTC 2023-09-19 19:58:24<br>
Tagged date : UTC 2023-09-19 19:58:40<br>
Comment : USUMV2302215<br>
TIM : 00:00:00:00<br>
TSC : 12288<br>
TSZ : 512<br>
<br>
Video<br>
ID : 1<br>
Format : AVC<br>
Format/Info : Advanced Video Codec<br>
Format profile : High@L5.1<br>
Format settings : CABAC / 1 Ref Frames<br>
Format settings, CABAC : Yes<br>
Format settings, Reference fra : 1 frame<br>
Format settings, GOP : M=1, N=30<br>
Codec ID : avc1<br>
Codec ID/Info : Advanced Video Coding<br>
Duration : 4 min 4 s<br>
Bit rate : 31.7 Mb/s<br>
Width : 1 920 pixels<br>
Height : 1 080 pixels<br>
Display aspect ratio : 16:9<br>
Frame rate mode : Constant<br>
Frame rate : 24.000 FPS<br>
Color space : YUV<br>
Chroma subsampling : 4:2:0<br>
Bit depth : 8 bits<br>
Scan type : Progressive<br>
Bits/(Pixel*Frame) : 0.637<br>
Stream size : 922 MiB (99%)<br>
Language : English<br>
Encoded date : UTC 2023-09-19 19:58:24<br>
Tagged date : UTC 2023-09-19 19:58:24<br>
Codec configuration box : avcC<br>
<br>
Audio<br>
ID : 2<br>
Format : AAC LC<br>
Format/Info : Advanced Audio Codec Low Complexity<br>
Codec ID : mp4a-40-2<br>
Duration : 4 min 4 s<br>
Source duration : 4 min 4 s<br>
Bit rate mode : Variable<br>
Bit rate : 317 kb/s<br>
Maximum bit rate : 413 kb/s<br>
Channel(s) : 2 channels<br>
Channel layout : L R<br>
Sampling rate : 48.0 kHz<br>
Frame rate : 46.875 FPS (1024 SPF)<br>
Compression mode : Lossy<br>
Stream size : 9.24 MiB (1%)<br>
Source stream size : 9.24 MiB (1%)<br>
Language : English<br>
Encoded date : UTC 2023-09-19 19:58:24<br>
Tagged date : UTC 2023-09-19 19:58:24</div>
</div><br>
<span style="color: #4da6ff">Download:<br>
<div class="bbCodeBlock bbCodeVfcHH HiddenContent">
<div class="attribution type">Hidden Content:</div>
<blockquote>You must either reply or click 'Like' to see the hidden information contained here.</blockquote>
</div></span>​</div>
<div class="messageTextEndMarker">&nbsp;</div>
</blockquote>
</article>]]></description>
                <author><![CDATA[stargamer]]></author>
                </item>

                </channel></rss>